# xmcd
#
# Track frame offsets:
#	150
#	35962
#	76027
#	99827
#	124857
#	153495
#	192387
#	218297
#	249595
#	284122
#
# Disc length: 4232
#
# Revision: 2
# Processed by: cddbd v1.5.1PL0 Copyright (c) Steve Scherf et al.
# Submitted via: DiscPlay 4.0.4
# Normalized: r1:DSETVAR1,TDELIM( - )
#
DISCID=8710860a
DTITLE=Various Artist - Spin-In Volume 2
DYEAR=1900
DGENRE=
TTITLE0=Sunstroke (disco citizens on the train remix) - Chicane
TTITLE1=And Then The Rain Falls (original mix) - Blue Amazon
TTITLE2=Say My Name (Eddy Fingers early hours dub) - Zee
TTITLE3=Walk With Me (mix number 1) - Heliotropic
TTITLE4=Make It Real (club mix) - Heliotropic (w/ Danny Campbell)
TTITLE5=Soul Fly (original mix) - Joshua
TTITLE6=Forbidden Fruit (fruit of love mix) - Paul Van Dyk
TTITLE7=Someone (original vocal mix) - Ascension
TTITLE8=Come With Me (qattara vocal mix) - Qattara
TTITLE9=Radio Freedom (world service) - Millenium
EXTD=
EXTT0=
EXTT1=
EXTT2=
EXTT3=
EXTT4=
EXTT5=
EXTT6=
EXTT7=
EXTT8=
EXTT9=
PLAYORDER=
